<svg width="54" height="60" viewBox="0 0 54 60"  xmlns="http://www.w3.org/2000/svg">
<g filter="url(#filter0_d_120_6)">
<path d="M13.8571 3.25C13.8571 1.45539 15.3254 0 17.1429 0C18.9603 0 20.4286 1.45539 20.4286 3.25V6.5H33.5714V3.25C33.5714 1.45539 35.0397 0 36.8571 0C38.6746 0 40.1429 1.45539 40.1429 3.25V6.5H45.0714C47.7924 6.5 50 8.68258 50 11.375V16.25H4V11.375C4 8.68258 6.20656 6.5 8.92857 6.5H13.8571V3.25ZM50 47.125C50 49.8164 47.7924 52 45.0714 52H8.92857C6.20656 52 4 49.8164 4 47.125V19.5H50V47.125Z" />
</g>
<defs>
<filter id="filter0_d_120_6" x="0" y="0" width="54" height="60" filterUnits="userSpaceOnUse" color-interpolation-filters="sRGB">
<feFlood flood-opacity="0" result="BackgroundImageFix"/>
<feColorMatrix in="SourceAlpha" type="matrix" values="0 0 0 0 0 0 0 0 0 0 0 0 0 0 0 0 0 0 127 0" result="hardAlpha"/>
<feOffset dy="4"/>
<feGaussianBlur stdDeviation="2"/>
<feComposite in2="hardAlpha" operator="out"/>
<feColorMatrix type="matrix" values="0 0 0 0 0 0 0 0 0 0 0 0 0 0 0 0 0 0 0.25 0"/>
<feBlend mode="normal" in2="BackgroundImageFix" result="effect1_dropShadow_120_6"/>
<feBlend mode="normal" in="SourceGraphic" in2="effect1_dropShadow_120_6" result="shape"/>
</filter>
</defs>
</svg>
