<svg width="74" height="66" viewBox="0 0 74 66"  xmlns="http://www.w3.org/2000/svg">
<path d="M12.3333 0C13.8108 0 15.0826 1.05574 15.3653 2.51496L15.558 4.125H69.6062C72.2142 4.125 74.2955 6.73535 73.5632 9.36633L66.6257 34.1215C66.1246 35.9004 64.5059 37.125 62.6687 37.125H21.9302L23.1121 43.3125H62.6944C64.4031 43.3125 65.7778 44.6918 65.7778 46.4062C65.7778 48.1207 64.4031 49.5 62.6944 49.5H20.4399C19.0781 49.5 17.8062 48.443 17.5236 46.9863L9.78187 6.1875H3.08333C1.38108 6.1875 0 4.80176 0 3.09375C0 1.38574 1.38108 0 3.08333 0H12.3333ZM16.4444 59.8125C16.4444 56.3965 19.2066 53.625 22.6111 53.625C26.0156 53.625 28.7778 56.3965 28.7778 59.8125C28.7778 63.2285 26.0156 66 22.6111 66C19.2066 66 16.4444 63.2285 16.4444 59.8125ZM65.7778 59.8125C65.7778 63.2285 63.0156 66 59.6111 66C56.2066 66 53.4444 63.2285 53.4444 59.8125C53.4444 56.3965 56.2066 53.625 59.6111 53.625C63.0156 53.625 65.7778 56.3965 65.7778 59.8125Z"/>
</svg>
