<svg width="56" height="56" viewBox="0 0 56 56"  xmlns="http://www.w3.org/2000/svg">
<path d="M28 56C12.5344 56 0 43.4656 0 28C0 12.5344 12.5344 0 28 0C43.4656 0 56 12.5344 56 28C56 43.4656 43.4656 56 28 56ZM25.375 28C25.375 28.875 25.8125 29.6953 26.5453 30.0891L37.0453 37.0891C38.2484 37.9859 39.8781 37.6578 40.5891 36.4547C41.4859 35.2516 41.1578 33.6219 39.9547 32.8125L30.625 26.6V13.125C30.625 11.6703 29.4547 10.5 27.9016 10.5C26.5453 10.5 25.2766 11.6703 25.2766 13.125L25.375 28Z" />
</svg>
