<svg width="62" height="61" viewBox="0 0 62 61"  xmlns="http://www.w3.org/2000/svg">
<path d="M55.3571 0H6.64286C4.88106 0 3.19142 0.688582 1.94565 1.91427C0.69987 3.13995 0 4.80234 0 6.53571L0 54.4643C0 56.1977 0.69987 57.8601 1.94565 59.0857C3.19142 60.3114 4.88106 61 6.64286 61H25.6373V40.2614H16.9185V30.5H25.6373V23.0602C25.6373 14.5978 30.7578 9.92339 38.6005 9.92339C42.3565 9.92339 46.2841 10.5824 46.2841 10.5824V18.8882H41.9566C37.6927 18.8882 36.3627 21.4916 36.3627 24.1617V30.5H45.8814L44.3591 40.2614H36.3627V61H55.3571C57.1189 61 58.8086 60.3114 60.0544 59.0857C61.3001 57.8601 62 56.1977 62 54.4643V6.53571C62 4.80234 61.3001 3.13995 60.0544 1.91427C58.8086 0.688582 57.1189 0 55.3571 0V0Z" />
</svg>
