<svg width="50" height="43" viewBox="0 0 50 43" xmlns="http://www.w3.org/2000/svg">
<path d="M0 14.6426V14.0762C0 7.25 4.93359 1.42773 11.6602 0.306641C16.0254 -0.43457 20.6445 1.0166 23.8281 4.20508L25 5.375L26.084 4.20508C29.3555 1.0166 33.8867 -0.43457 38.3398 0.306641C45.0684 1.42773 50 7.25 50 14.0762V14.6426C50 18.6953 48.3203 22.5723 45.3516 25.3359L27.7051 41.8105C26.9727 42.4941 26.0059 42.875 25 42.875C23.9941 42.875 23.0273 42.4941 22.2949 41.8105L4.64746 25.3359C1.68262 22.5723 2.92969e-05 18.6953 2.92969e-05 14.6426H0Z" />
</svg>
