<svg width="60" height="60" viewBox="0 0 60 60"  xmlns="http://www.w3.org/2000/svg">
<path d="M0 4.28571C0 1.9192 1.9192 0 4.28571 0H55.7143C58.0848 0 60 1.9192 60 4.28571C60 6.65223 58.0848 8.57143 55.7143 8.57143H4.28571C1.9192 8.57143 0 6.65223 0 4.28571ZM25.7143 21.4286C25.7143 19.058 27.6295 17.1429 30 17.1429H55.7143C58.0848 17.1429 60 19.058 60 21.4286C60 23.7991 58.0848 25.7143 55.7143 25.7143H30C27.6295 25.7143 25.7143 23.7991 25.7143 21.4286ZM55.7143 34.2857C58.0848 34.2857 60 36.2009 60 38.5714C60 40.942 58.0848 42.8571 55.7143 42.8571H30C27.6295 42.8571 25.7143 40.942 25.7143 38.5714C25.7143 36.2009 27.6295 34.2857 30 34.2857H55.7143ZM0 55.7143C0 53.3437 1.9192 51.4286 4.28571 51.4286H55.7143C58.0848 51.4286 60 53.3437 60 55.7143C60 58.0848 58.0848 60 55.7143 60H4.28571C1.9192 60 0 58.0848 0 55.7143ZM3.45804 42.308C2.05045 43.4062 0 42.4018 0 40.6205V19.3795C0 17.5982 2.05045 16.5938 3.45804 17.692L17.1161 28.3125C18.0938 29.1696 18.0938 30.8304 17.1161 31.6875L3.45804 42.308Z" />
</svg>
