<svg width="58" height="58" viewBox="0 0 58 58"  xmlns="http://www.w3.org/2000/svg">
<g clip-path="url(#clip0_301_2)">
<path d="M56.6746 50.2629L43.1148 36.7031C46.1984 32.1254 47.7197 26.4059 46.9052 20.3113C45.5164 9.94496 37.0203 1.50891 26.6437 0.195183C11.216 -1.75699 -1.757 11.216 0.195288 26.6437C1.50935 37.0248 9.94654 45.5277 20.314 46.9098C26.4086 47.7241 32.1293 46.2033 36.7058 43.1194L50.2656 56.6791C52.0351 58.4486 54.9045 58.4486 56.6739 56.6791C58.4418 54.9074 58.4418 52.0301 56.6746 50.2629ZM8.96054 23.5625C8.96054 15.5671 15.4651 9.0625 23.4605 9.0625C31.4559 9.0625 37.9605 15.5671 37.9605 23.5625C37.9605 31.5579 31.4559 38.0625 23.4605 38.0625C15.4651 38.0625 8.96054 31.5602 8.96054 23.5625Z" />
</g>
<defs>
<clipPath id="clip0_301_2">
<rect width="58" height="58" fill="white"/>
</clipPath>
</defs>
</svg>
