<svg width="58" height="58" viewBox="0 0 58 58"  xmlns="http://www.w3.org/2000/svg">
<path d="M8.28571 0C3.71563 0 0 3.69961 0 8.25V49.5C0 54.0504 3.71563 57.75 8.28571 57.75H49.7143C54.2844 57.75 58 54.0504 58 49.5V8.25C58 3.69961 54.2844 0 49.7143 0H8.28571ZM24.8571 28.875H31.0714C33.3629 28.875 35.2143 27.0316 35.2143 24.75C35.2143 22.4684 33.3629 20.625 31.0714 20.625H24.8571V28.875ZM31.0714 37.125H24.8571V41.25C24.8571 43.5316 23.0058 45.375 20.7143 45.375C18.4228 45.375 16.5714 43.5316 16.5714 41.25V33V17.5312C16.5714 14.6824 18.8888 12.375 21.75 12.375H31.0714C37.933 12.375 43.5 17.918 43.5 24.75C43.5 31.582 37.933 37.125 31.0714 37.125Z" />
</svg>
