<svg width="52" height="52" viewBox="0 0 52 52"  xmlns="http://www.w3.org/2000/svg">
<path d="M51.9237 39.3033L49.5621 49.5403C49.2304 50.9875 47.9583 52 46.4682 52C20.8426 51.998 0 31.1584 0 5.53547C0 4.04664 1.01257 2.77311 2.46008 2.44305L12.6985 0.0818437C14.1896 -0.263654 15.7132 0.510213 16.3328 1.92206L21.0579 12.941C21.6103 14.2389 21.2377 15.7511 20.1458 16.6428L14.6772 21.0331C18.1286 28.0629 23.8451 33.7786 30.8779 37.2315L35.3552 31.7677C36.2377 30.673 37.7615 30.2941 39.0596 30.8563L50.0801 35.5797C51.4056 36.2769 52.269 37.8206 51.9237 39.3033Z" />
</svg>
