<svg width="136" height="132" viewBox="0 0 136 132"  xmlns="http://www.w3.org/2000/svg">
<path d="M128.034 0C132.099 0 136 3.17437 136 7.96981V50.9726C136 54.0939 133.484 56.6228 130.381 56.6228H87.6771C82.9055 56.6228 79.7459 52.6968 79.7459 48.6058C79.7459 46.6505 80.4672 44.6563 82.0789 43.0352L95.3035 29.7306C87.0323 22.9103 76.5892 18.9312 65.6127 18.9312C39.7938 18.9312 18.7758 40.0613 18.7758 66.031C18.7758 92.0006 39.7821 113.119 65.6039 113.119C87.0411 113.119 91.8185 101.827 99.3394 101.827C104.756 101.827 108.71 106.26 108.71 111.247C108.71 121.575 84.7959 132 65.6244 132C29.4563 132 0 102.378 0 66.0074C0 29.6363 29.4651 0.0972641 65.6332 0.0972641C81.6363 0.0972641 96.7602 6.10704 108.543 16.3847L122.494 2.34614C124.106 0.725064 126.099 0 128.034 0Z"/>
</svg>
