<svg width="239" height="232" viewBox="0 0 239 232" xmlns="http://www.w3.org/2000/svg">
<path d="M153.965 71.8254L155.926 75.8664L160.37 76.5227L225.403 86.1277L225.422 86.1306L225.442 86.1333C227.596 86.4415 229.48 87.9889 230.2 90.1582C230.904 92.3192 230.349 94.678 228.71 96.3358L181.588 142.604L178.429 145.707L179.161 150.075L190.292 216.485C190.676 218.792 189.725 221.055 187.914 222.342L187.898 222.354L187.881 222.366C186.009 223.71 183.553 223.859 181.59 222.814C181.589 222.813 181.588 222.813 181.587 222.812L123.483 191.78L119.477 189.64L115.472 191.781L57.4439 222.797C57.4396 222.799 57.4353 222.802 57.4309 222.804C55.3956 223.873 52.9316 223.698 51.0757 222.366C49.2402 221.048 48.3111 218.77 48.6985 216.553L48.7037 216.524L48.7086 216.494L59.8416 150.075L60.5737 145.707L57.4132 142.604L10.2812 96.3336C8.65454 94.6912 8.09223 92.3328 8.80223 90.143C9.50962 87.9922 11.3664 86.4461 13.5608 86.1346L13.585 86.1311L13.6092 86.1276L78.588 76.5225L83.0276 75.8663L84.9896 71.8301L114.135 11.8755L114.143 11.8584L114.151 11.8412C115.128 9.80897 117.21 8.5 119.479 8.5C121.808 8.5 123.881 9.82251 124.851 11.8412L124.858 11.856L124.865 11.8709L153.965 71.8254Z"  />
</svg>
