<svg width="50" height="50" viewBox="0 0 50 50" xmlns="http://www.w3.org/2000/svg">
<g clip-path="url(#clip0_3_10)">
<path d="M25 15.5371C19.8223 15.5371 15.7129 19.7344 15.7129 24.8242C15.7129 29.9141 19.7363 34.2871 25 34.2871C30.2637 34.2871 34.2871 30.0898 34.2871 25C34.2871 19.9102 30.1758 15.5371 25 15.5371ZM49.7363 33.8867L43.5645 24.9121L49.7314 16.0244C50.3498 15.1333 49.8393 13.9014 48.7719 13.708L38.1273 11.7842L36.2035 1.13965C36.0106 0.0722711 34.7787 -0.438471 33.8871 0.180279L25 6.43458L16.0254 0.267193C15.1343 -0.351166 13.9023 0.159088 13.709 1.22657L11.875 11.875L1.22656 13.7988C0.159473 13.9844 -0.351171 15.2246 0.267188 16.0254L6.43457 25L0.267579 33.8877C-0.350781 34.7788 0.159668 36.0107 1.22695 36.2041L11.8715 38.1279L13.7953 48.7725C13.9882 49.8398 15.2201 50.3506 16.1117 49.7318L25 43.5645L33.8877 49.7315C34.779 50.35 36.0117 49.8396 36.2041 48.7723L38.1279 38.1277L48.7725 36.2039C49.8438 36.0156 50.3516 34.7754 49.7363 33.8867ZM25 37.4121C18.0967 37.4121 12.5879 31.8154 12.5879 25C12.5879 18.0967 18.1846 12.5879 25 12.5879C31.8154 12.5879 37.4121 18.1836 37.4121 25C37.4121 31.9043 31.9043 37.4121 25 37.4121Z" />
</g>
<defs>
<clipPath id="clip0_3_10">
<rect width="50" height="50" />
</clipPath>
</defs>
</svg>
