<svg width="106" height="92" viewBox="0 0 106 92"  xmlns="http://www.w3.org/2000/svg">
<path d="M19.875 0.00821447H6.625C2.96676 0.00821447 0 2.94893 0 6.39482V52.21C0 55.8387 2.96676 58.5966 6.625 58.5966H19.875C23.5332 58.5966 26.5 55.6538 26.5 52.21V6.57759C26.5 2.94893 23.5395 0.00821447 19.875 0.00821447ZM96.7457 42.7554C98.3605 41.0098 99.375 38.6893 99.375 36.1223C99.375 31.3026 95.8824 27.3084 91.2718 26.4521C92.191 24.9714 92.75 23.2259 92.75 21.1723C92.75 16.7941 89.8516 13.1264 85.8662 11.8429C86.0215 11.3193 86.125 10.5985 86.125 9.85304C86.125 4.40902 81.6738 0 76.1875 0H64.0368C56.8715 0 49.9007 2.30411 44.168 6.56732L37.1 11.8224C34.5949 13.6829 33.125 16.6134 33.125 19.5295L33.1472 52.3866C33.1472 52.3866 33.1424 52.3818 33.1472 52.3866C33.1618 55.2596 34.4149 58.1243 36.8552 60.0588L40.2298 62.7346C57.182 76.3723 49.5633 92 62.627 92C69.0366 92 72.8688 86.9646 72.8688 82.1203C72.8688 79.0091 70.4341 70.1849 65.7221 62.4019H96.0625C101.553 62.4019 106 57.9929 106 52.5488C106 47.3348 101.901 43.1045 96.7457 42.7554Z" />
</svg>
