<svg width="108" height="94" viewBox="0 0 108 94" xmlns="http://www.w3.org/2000/svg">
<path d="M27 87.0969V40.0969C27 36.3893 23.9773 33.5714 20.25 33.5714H6.75C3.02273 33.5714 0 36.5782 0 40.0969V86.908C0 90.6156 3.02273 93.4335 6.75 93.4335H20.25C23.9836 93.8112 27 90.9786 27 87.0969ZM108 40.3067C108 34.7464 103.469 30.2395 97.875 30.2395H66.9727C71.7757 22.2851 74.2542 13.2691 74.2542 10.0924C74.25 5.14482 70.3477 0 63.8086 0C50.4921 0 58.2483 15.9779 40.9852 29.7107L37.5469 32.4384C35.0578 34.4317 33.7922 37.3482 33.7711 40.2857C33.7662 40.2906 33.7711 40.2857 33.7711 40.2857L33.75 73.8571C33.75 77.0254 35.2504 80.0112 37.8 81.9122L45.0014 87.2815C50.8359 91.65 57.9445 94 65.243 94H77.625C83.2191 94 87.75 89.4951 87.75 83.9328C87.75 83.1701 87.6486 82.434 87.4872 81.7192C91.5469 80.4036 94.5 76.6688 94.5 72.1786C94.5 70.2591 93.9311 68.4836 92.9941 66.9582C97.6852 66.0938 101.25 62.0022 101.25 57.0924C101.25 54.4696 100.218 52.1029 98.5669 50.311C103.823 49.9585 108 45.6362 108 40.3067Z" />
</svg>
