<svg width="263" height="300" viewBox="0 0 263 300"  xmlns="http://www.w3.org/2000/svg">
<path d="M1.62e-08 84.375V63.8672C0.391369 56.4453 3.32664 50.1953 8.8058 45.1172C14.285 40.0391 20.7426 37.5 28.1786 37.5H56.3571V28.125C56.3571 20.3125 59.0967 13.6719 64.5759 8.20313C70.0551 2.73438 76.7083 0 84.5357 0H178.464C186.292 0 192.945 2.73438 198.424 8.20313C203.903 13.6719 206.643 20.3125 206.643 28.125V37.5H234.821C242.257 37.5 248.715 40.0391 254.194 45.1172C259.673 50.1953 262.609 56.4453 263 63.8672V84.375C263 89.4531 261.141 93.8477 257.423 97.5588C253.705 101.27 249.302 103.125 244.214 103.125V262.5C244.214 273.047 240.594 281.934 233.354 289.16C226.114 296.387 217.21 300 206.643 300H56.3571C45.7902 300 36.8865 296.387 29.6461 289.16C22.4056 281.934 18.7855 273.047 18.7857 262.5V103.125C13.6979 103.125 9.29496 101.27 5.57686 97.5588C1.85875 93.8479 -0.000200378 89.4533 1.62e-08 84.375H1.62e-08ZM18.7857 84.375H244.214V65.625C244.214 62.8906 243.334 60.6445 241.572 58.8866C239.811 57.1287 237.561 56.2497 234.821 56.2497H28.1783C25.4387 56.2497 23.1883 57.1287 21.427 58.8866C19.6657 60.6445 18.7851 62.8906 18.7851 65.625V84.375H18.7857ZM37.5714 262.5C37.5714 267.578 39.4304 271.973 43.1483 275.684C46.8662 279.395 51.2691 281.25 56.3571 281.25H206.643C211.731 281.25 216.134 279.395 219.852 275.684C223.57 271.973 225.429 267.578 225.429 262.5V103.125H37.5714V262.5V262.5ZM56.3571 253.125V131.25C56.3571 128.516 57.2378 126.269 58.999 124.512C60.7603 122.754 63.0107 121.875 65.7503 121.875H84.536C87.2756 121.875 89.526 122.754 91.2873 124.512C93.0485 126.269 93.9292 128.516 93.9292 131.25V253.125C93.9292 255.859 93.0485 258.106 91.2873 259.863C89.526 261.621 87.2756 262.5 84.536 262.5H65.7503C63.0107 262.5 60.7603 261.621 58.999 259.863C57.2378 258.106 56.3571 255.859 56.3571 253.125ZM65.75 253.125H84.5357V131.25H65.75V253.125V253.125ZM75.1429 37.5H187.857V28.125C187.857 25.3906 186.977 23.1445 185.215 21.3866C183.454 19.6287 181.204 18.7497 178.464 18.7497H84.5354C81.7958 18.7497 79.5454 19.6287 77.7841 21.3866C76.0229 23.1445 75.1423 25.3906 75.1423 28.125V37.5H75.1429ZM112.714 253.125V131.25C112.714 128.516 113.595 126.269 115.356 124.512C117.117 122.754 119.368 121.875 122.107 121.875H140.893C143.633 121.875 145.883 122.754 147.644 124.512C149.406 126.269 150.286 128.516 150.286 131.25V253.125C150.286 255.859 149.406 258.106 147.644 259.863C145.883 261.621 143.633 262.5 140.893 262.5H122.107C119.368 262.5 117.117 261.621 115.356 259.863C113.595 258.106 112.714 255.859 112.714 253.125ZM122.107 253.125H140.893V131.25H122.107V253.125ZM169.071 253.125V131.25C169.071 128.516 169.952 126.269 171.713 124.512C173.475 122.754 175.725 121.875 178.465 121.875H197.25C199.99 121.875 202.24 122.754 204.002 124.512C205.763 126.269 206.643 128.516 206.643 131.25V253.125C206.643 255.859 205.763 258.106 204.002 259.863C202.24 261.621 199.99 262.5 197.25 262.5H178.465C175.725 262.5 173.475 261.621 171.713 259.863C169.952 258.106 169.071 255.859 169.071 253.125ZM178.464 253.125H197.25V131.25H178.464V253.125Z" />
</svg>
