<svg width="60" height="61" viewBox="0 0 60 61"  xmlns="http://www.w3.org/2000/svg">
<path d="M53.5714 0H6.42857C2.87946 0 0 2.92746 0 6.53571V54.4643C0 58.0725 2.87946 61 6.42857 61H53.5714C57.1205 61 60 58.0725 60 54.4643V6.53571C60 2.92746 57.1205 0 53.5714 0ZM47.0223 21.6223C47.0491 22.0036 47.0491 22.3984 47.0491 22.7797C47.0491 34.5848 38.2098 48.1873 22.058 48.1873C17.0759 48.1873 12.4554 46.7167 8.57143 44.1842C9.28125 44.2658 9.96429 44.2931 10.6875 44.2931C14.7991 44.2931 18.5759 42.877 21.5893 40.4806C17.7321 40.3989 14.4911 37.8254 13.3795 34.2853C14.7321 34.4895 15.9509 34.4895 17.3437 34.1219C13.3259 33.2913 10.3125 29.6967 10.3125 25.3531V25.2442C11.4777 25.9114 12.8437 26.3199 14.2768 26.3743C13.072 25.5596 12.0844 24.4543 11.402 23.1571C10.7196 21.8598 10.3637 20.411 10.3661 18.94C10.3661 17.2788 10.7946 15.7538 11.558 14.433C15.8839 19.8522 22.3795 23.3924 29.6652 23.7737C28.4196 17.7145 32.8795 12.7991 38.2366 12.7991C40.7679 12.7991 43.0446 13.8748 44.6518 15.6176C46.6339 15.2364 48.5357 14.4875 50.2232 13.4663C49.567 15.5359 48.1875 17.2788 46.3661 18.3817C48.1339 18.1911 49.8482 17.6873 51.4286 16.9929C50.2366 18.7766 48.7366 20.356 47.0223 21.6223Z" />
</svg>
