<svg width="45" height="44" viewBox="0 0 45 44" xmlns="http://www.w3.org/2000/svg">
<path d="M1.29595 36.2886C-0.422802 37.9976 -0.422802 40.7661 1.29595 42.4751C2.14845 43.3296 3.27595 43.7534 4.40345 43.7534C5.53095 43.7534 6.6557 43.3262 7.5137 42.4717L22.0034 28.0718L36.4918 42.4683C37.3512 43.3296 38.4773 43.7534 39.6034 43.7534C40.7296 43.7534 41.8543 43.3296 42.7144 42.4683C44.4331 40.7593 44.4331 37.9907 42.7144 36.2817L28.2219 21.8716L42.7144 7.46826C44.4331 5.75928 44.4331 2.99072 42.7144 1.28174C40.9956 -0.427246 38.2113 -0.427246 36.4925 1.28174L22.0034 15.6987L7.51095 1.28857C5.7922 -0.42041 3.00782 -0.42041 1.28907 1.28857C-0.429676 2.99756 -0.429676 5.76611 1.28907 7.4751L15.7816 21.8853L1.29595 36.2886Z"/>
</svg>
